<svg xmlns="http://www.w3.org/2000/svg" width="860" height="270" viewBox="0 0 860 270">
<style>
.mono,.key,.metric,.bright,.muted{font-family:ui-monospace,SFMono-Regular,Menlo,Consolas,monospace}
.key{fill:#39d353;font-size:8px;font-weight:700;letter-spacing:.8px}
.metric{fill:#f0f6fc;font-size:18px;font-weight:800}
.bright{fill:#f0f6fc;font-family:ui-monospace,SFMono-Regular,Menlo,Consolas,monospace}
.muted{fill:#8b949e;font-family:ui-monospace,SFMono-Regular,Menlo,Consolas,monospace}
.green{fill:#39d353}
</style>
<rect x=".5" y=".5" width="859" height="269" rx="18" fill="#0d1117" stroke="#30363d"/>
<circle cx="18" cy="18" r="4" fill="#ff5f56"/><circle cx="32" cy="18" r="4" fill="#ffbd2e"/><circle cx="46" cy="18" r="4" fill="#27c93f"/>
<text x="64" y="22" class="muted" font-size="10">anshdeep@github ~ $ projects --live</text>
<text x="836" y="22" text-anchor="end" class="muted" font-size="9">repo metrics · daily refresh</text>
<line x1="20" y1="42" x2="840" y2="42" stroke="#21262d"/>

        <g opacity="0">
          <animate attributeName="opacity" from="0" to="1" dur=".35s" begin="0.18s" fill="freeze"/>
          <animateTransform attributeName="transform" type="translate" from="0 6" to="0 0" dur=".35s" begin="0.18s" fill="freeze"/>
          <rect x="24" y="54" width="262" height="190" rx="14" fill="#0d1117" stroke="#30363d"/>
          <text x="40" y="77" class="bright" font-size="14" font-weight="800">AniDash</text>
          <rect x="195" y="61" width="70" height="20" rx="10" fill="#0e4429" stroke="#238636"/><text x="230" y="75" text-anchor="middle" class="mono green" font-size="8" font-weight="700">ACTIVE</text>
          <text x="40" y="100" class="muted" font-size="9">Dart · anidashweb.vercel.app</text>
          <line x1="40" y1="112" x2="270" y2="112" stroke="#21262d"/>

          <text x="40" y="137" class="key">STARS</text>
          <text x="40" y="161" class="metric">17</text>
          <text x="109" y="137" class="key">FORKS</text>
          <text x="109" y="161" class="metric">0</text>
          <text x="178" y="137" class="key">ISSUES</text>
          <text x="178" y="161" class="metric">1</text>

          <line x1="40" y1="178" x2="270" y2="178" stroke="#21262d"/>
          <text x="40" y="199" class="key">LATEST RELEASE</text>
          <text x="40" y="222" class="bright" font-size="12" font-weight="700">v1.19.3</text>
          <text x="270" y="222" text-anchor="end" class="muted" font-size="8">Oct 10</text>
        </g>
        <g opacity="0">
          <animate attributeName="opacity" from="0" to="1" dur=".35s" begin="0.36s" fill="freeze"/>
          <animateTransform attributeName="transform" type="translate" from="0 6" to="0 0" dur=".35s" begin="0.36s" fill="freeze"/>
          <rect x="299" y="54" width="262" height="190" rx="14" fill="#0d1117" stroke="#30363d"/>
          <text x="315" y="77" class="bright" font-size="14" font-weight="800">VYBE</text>
          <text x="540" y="74" text-anchor="end" class="muted" font-size="8">updated Oct 08</text>
          <text x="315" y="100" class="muted" font-size="9">Kotlin · vybetune.vercel.app</text>
          <line x1="315" y1="112" x2="545" y2="112" stroke="#21262d"/>

          <text x="315" y="137" class="key">STARS</text>
          <text x="315" y="161" class="metric">0</text>
          <text x="384" y="137" class="key">FORKS</text>
          <text x="384" y="161" class="metric">0</text>
          <text x="453" y="137" class="key">ISSUES</text>
          <text x="453" y="161" class="metric">3</text>

          <line x1="315" y1="178" x2="545" y2="178" stroke="#21262d"/>
          <text x="315" y="199" class="key">LATEST RELEASE</text>
          <text x="315" y="222" class="bright" font-size="12" font-weight="700">v0.13.0</text>
          <text x="545" y="222" text-anchor="end" class="muted" font-size="8">Oct 08</text>
        </g>
        <g opacity="0">
          <animate attributeName="opacity" from="0" to="1" dur=".35s" begin="0.54s" fill="freeze"/>
          <animateTransform attributeName="transform" type="translate" from="0 6" to="0 0" dur=".35s" begin="0.54s" fill="freeze"/>
          <rect x="574" y="54" width="262" height="190" rx="14" fill="#0d1117" stroke="#30363d"/>
          <text x="590" y="77" class="bright" font-size="14" font-weight="800">Copy Cloud</text>
          <text x="815" y="74" text-anchor="end" class="muted" font-size="8">updated Sep 29</text>
          <text x="590" y="100" class="muted" font-size="9">TypeScript · copycloud.me</text>
          <line x1="590" y1="112" x2="820" y2="112" stroke="#21262d"/>

          <text x="590" y="137" class="key">STARS</text>
          <text x="590" y="161" class="metric">0</text>
          <text x="659" y="137" class="key">FORKS</text>
          <text x="659" y="161" class="metric">0</text>
          <text x="728" y="137" class="key">ISSUES</text>
          <text x="728" y="161" class="metric">0</text>

          <line x1="590" y1="178" x2="820" y2="178" stroke="#21262d"/>
          <text x="590" y="199" class="key">DELIVERY</text>
          <text x="590" y="222" class="bright" font-size="12" font-weight="700">web</text>
          <text x="820" y="222" text-anchor="end" class="muted" font-size="8">Sep 29</text>
        </g>
</svg>
